<?xml version="1.0" standalone="no"?>
<!DOCTYPE svg PUBLIC "-//W3C//DTD SVG 20010904//EN"
 "http://www.w3.org/TR/2001/REC-SVG-20010904/DTD/svg10.dtd">
<svg version="1.0" xmlns="http://www.w3.org/2000/svg"
 width="1424.000000pt" height="736.000000pt" viewBox="0 0 1424.000000 736.000000"
 preserveAspectRatio="xMidYMid meet">

<g transform="translate(0.000000,736.000000) scale(0.100000,-0.100000)"
fill="#000000" stroke="none">
<path d="M13005 3215 c-77 -25 -205 -66 -285 -91 -80 -25 -244 -77 -365 -115
-121 -39 -226 -72 -232 -74 -35 -11 136 -217 233 -281 148 -98 318 -152 504
-161 303 -14 522 85 591 267 50 132 27 272 -59 358 -26 26 -57 55 -69 64 -26
20 -123 65 -155 72 -13 3 -86 -15 -163 -39z"/>
<path d="M11310 2679 c-206 -66 -438 -139 -515 -164 -77 -24 -288 -91 -470
-149 -181 -57 -510 -161 -730 -231 -220 -70 -472 -150 -560 -178 l-160 -52 0
-35 0 -35 1855 -2 1855 -1 -95 19 c-443 94 -789 330 -985 674 -25 44 -45 82
-45 86 0 3 52 45 115 93 63 48 115 89 115 92 0 5 56 22 -380 -117z"/>
</g>
</svg>
